STARTFONT 2.1
FONT jis.jis9800.16
SIZE 16 72 72
FONTBOUNDINGBOX 16 16 0 -2
STARTPROPERTIES 4
FONT_DESCENT 2
FONT_ASCENT 14
DEFAULT_CHAR 1
COPYRIGHT "Copyright (c) 1992 AT&T - All rights reserved."
ENDPROPERTIES
CHARS 128
STARTCHAR ch-1
ENCODING 1
SWIDTH 1000 0
DWIDTH 16 0
BBX 16 16 0 -2
BITMAP
0000
ffff
0100
1ff8
1008
1008
1ff8
1008
1008
1ff8
1008
1008
1ff8
0810
1818
700e
ENDCHAR
STARTCHAR ch-2
ENCODING 2
SWIDTH 1000 0
DWIDTH 16 0
BBX 16 16 0 -2
BITMAP
0000
03ff
fc20
11fe
1102
1102
11fe
1102
1102
11fe
1102
1102
11fe
1084
7186
0303
ENDCHAR
STARTCHAR ch-3
ENCODING 3
SWIDTH 1000 0
DWIDTH 16 0
BBX 16 16 0 -2
BITMAP
0000
43ff
4020
41fe
4d02
7902
41fe
4102
4102
41fe
4502
4502
3dfe
0084
0186
0303
ENDCHAR
STARTCHAR ch-5
ENCODING 5
SWIDTH 1000 0
DWIDTH 16 0
BBX 16 16 0 -2
BITMAP
0000
03ff
f820
21fe
2102
2102
21fe
2102
2102
21fe
3902
e102
01fe
0084
0186
0303
ENDCHAR
STARTCHAR ch-6
ENCODING 6
SWIDTH 1000 0
DWIDTH 16 0
BBX 16 16 0 -2
BITMAP
0400
45ff
5410
54fe
5482
5482
54fe
5482
5482
54fe
5482
5482
c4fe
8444
04c6
0183
ENDCHAR
STARTCHAR ch-8
ENCODING 8
SWIDTH 1000 0
DWIDTH 16 0
BBX 16 16 0 -2
BITMAP
0800
1bff
3020
61fe
c902
1902
11fe
3102
6502
cdfe
0902
1902
31fe
6084
c186
0303
ENDCHAR
STARTCHAR ch-12
ENCODING 12
SWIDTH 1000 0
DWIDTH 16 0
BBX 16 16 0 -2
BITMAP
0000
25ff
2410
24fe
6682
4282
d3fe
1082
1082
30fe
2482
2482
2efe
7a44
00c6
0183
ENDCHAR
STARTCHAR ch-15
ENCODING 15
SWIDTH 1000 0
DWIDTH 16 0
BBX 16 16 0 -2
BITMAP
1000
10ff
1010
ff7e
0042
3c42
247e
2442
2442
247e
2442
2542
667e
4424
c066
00c3
ENDCHAR
STARTCHAR ch-16
ENCODING 16
SWIDTH 1000 0
DWIDTH 16 0
BBX 16 16 0 -2
BITMAP
0000
fdff
0410
68fe
3082
1082
fefe
1282
1682
14fe
1082
1082
10fe
1044
10c6
7183
ENDCHAR
STARTCHAR ch-17
ENCODING 17
SWIDTH 1000 0
DWIDTH 16 0
BBX 16 16 0 -2
BITMAP
0000
7dff
0010
00fe
0082
fe82
28fe
2882
2882
28fe
2882
2a82
6cfe
4844
c0c6
0183
ENDCHAR
STARTCHAR ch-18
ENCODING 18
SWIDTH 1000 0
DWIDTH 16 0
BBX 16 16 0 -2
BITMAP
0000
24ff
2410
667e
4242
c342
007e
7e42
1242
127e
3242
2242
267e
6424
cc66
00c3
ENDCHAR
STARTCHAR ch-19
ENCODING 19
SWIDTH 1000 0
DWIDTH 16 0
BBX 16 16 0 -2
BITMAP
1000
11ff
1e10
f0fe
1082
5482
54fe
5482
5482
54fe
7c82
1082
10fe
1244
0ec6
0183
ENDCHAR
STARTCHAR ch-23
ENCODING 23
SWIDTH 1000 0
DWIDTH 16 0
BBX 16 16 0 -2
BITMAP
0800
08ff
0810
7f7e
4942
4842
7e7e
4242
6642
547e
5c42
4842
dc7e
9624
3266
00c3
ENDCHAR
STARTCHAR ch-24
ENCODING 24
SWIDTH 1000 0
DWIDTH 16 0
BBX 16 16 0 -2
BITMAP
1000
39ff
2c10
66fe
c082
3882
00fe
0082
fc82
24fe
2482
2482
24fe
2c44
20c6
2183
ENDCHAR
STARTCHAR ch-26
ENCODING 26
SWIDTH 1000 0
DWIDTH 16 0
BBX 16 16 0 -2
BITMAP
0000
fdff
4410
6cfe
3882
1082
38fe
6c82
c682
10fe
7c82
1082
10fe
1e44
f0c6
0183
ENDCHAR
STARTCHAR ch-33
ENCODING 33
SWIDTH 1000 0
DWIDTH 16 0
BBX 16 16 0 -2
BITMAP
1000
10ff
1010
fe7e
1042
1042
7c7e
0042
0042
7c7e
4442
4442
447e
4424
7c66
00c3
ENDCHAR
STARTCHAR ch-36
ENCODING 36
SWIDTH 1000 0
DWIDTH 16 0
BBX 16 16 0 -2
BITMAP
0000
7f7f
4408
443e
5422
5722
513e
5122
5122
573e
5422
4422
443e
7f14
0036
0063
ENDCHAR
STARTCHAR ch-44
ENCODING 44
SWIDTH 1000 0
DWIDTH 16 0
BBX 16 16 0 -2
BITMAP
1000
11ff
fe10
10fe
9282
5482
54fe
1082
fe82
10fe
1082
3882
28fe
6c44
46c6
c183
ENDCHAR
STARTCHAR ch-45
ENCODING 45
SWIDTH 1000 0
DWIDTH 16 0
BBX 16 16 0 -2
BITMAP
0000
feff
0010
007e
7c42
4442
447e
4442
7c42
007e
4442
6c42
287e
3e24
e066
00c3
ENDCHAR
STARTCHAR ch-52
ENCODING 52
SWIDTH 1000 0
DWIDTH 16 0
BBX 16 16 0 -2
BITMAP
4000
46ff
7c10
407e
4142
3f42
007e
7f42
0042
fffe
0842
2a42
6b7e
4924
c866
18c3
ENDCHAR
STARTCHAR ch-55
ENCODING 55
SWIDTH 1000 0
DWIDTH 16 0
BBX 16 16 0 -2
BITMAP
0800
1cff
3610
637e
dc42
0042
7e7e
0242
0442
087e
7e42
4242
427e
4224
7e66
00c3
ENDCHAR
STARTCHAR ch-56
ENCODING 56
SWIDTH 1000 0
DWIDTH 16 0
BBX 16 16 0 -2
BITMAP
0000
ff7f
0008
493e
4922
9222
923e
4922
4922
003e
7f22
0822
083e
0f14
3836
e063
ENDCHAR
STARTCHAR ch-59
ENCODING 59
SWIDTH 1000 0
DWIDTH 16 0
BBX 16 16 0 -2
BITMAP
1000
51ff
5e10
50fe
5082
ff82
10fe
5482
5682
d3fe
9482
3482
0cfe
1844
30c6
e183
ENDCHAR
STARTCHAR ch-60
ENCODING 60
SWIDTH 1000 0
DWIDTH 16 0
BBX 16 16 0 -2
BITMAP
1000
11ff
fe10
10fe
1082
fe82
92fe
9282
fe82
10fe
3882
3482
52fe
5044
90c6
1183
ENDCHAR
STARTCHAR ch-61
ENCODING 61
SWIDTH 1000 0
DWIDTH 16 0
BBX 16 16 0 -2
BITMAP
0200
0eff
7810
087e
ffc2
2a42
2a7e
6b42
c9c2
3c7e
2442
2442
257e
6624
4466
c0c3
ENDCHAR
STARTCHAR ch-70
ENCODING 70
SWIDTH 1000 0
DWIDTH 16 0
BBX 16 16 0 -2
BITMAP
0000
7f7f
4908
493e
7f22
4922
493e
7f22
0822
ffbe
2a22
2a22
6b3e
4914
c9b6
0863
ENDCHAR
STARTCHAR ch-75
ENCODING 75
SWIDTH 1000 0
DWIDTH 16 0
BBX 16 16 0 -2
BITMAP
0000
7f7f
4908
493e
7f22
4922
493e
4922
7f22
083e
0c22
1522
51be
5294
d236
8e63
ENDCHAR
STARTCHAR ch-76
ENCODING 76
SWIDTH 1000 0
DWIDTH 16 0
BBX 16 16 0 -2
BITMAP
0000
7eff
4210
7e7e
4242
4242
7e7e
0042
ff42
087e
4842
4f42
487e
6824
d842
8fff
ENDCHAR
STARTCHAR ch-77
ENCODING 77
SWIDTH 1000 0
DWIDTH 16 0
BBX 16 16 0 -2
BITMAP
1000
11ff
fe10
82fe
a282
3c82
44fe
a882
1082
28fe
c682
7c82
44fe
4444
7cc6
0183
ENDCHAR
STARTCHAR ch-78
ENCODING 78
SWIDTH 1000 0
DWIDTH 16 0
BBX 16 16 0 -2
BITMAP
0000
eeff
aa10
aa7e
ee42
0042
7c7e
0042
fe42
107e
2042
7c42
047e
0424
0c66
38c3
ENDCHAR
STARTCHAR ch-79
ENCODING 79
SWIDTH 1000 0
DWIDTH 16 0
BBX 16 16 0 -2
BITMAP
0800
ffff
1210
0c7e
1242
7f42
447e
4c42
5a42
467e
4c42
d942
837e
8624
1c66
70c3
ENDCHAR
STARTCHAR ch-84
ENCODING 84
SWIDTH 1000 0
DWIDTH 16 0
BBX 16 16 0 -2
BITMAP
0800
08ff
7f10
227e
1442
7f42
447e
4c42
5a42
467e
4c42
5942
437e
c624
8c66
38c3
ENDCHAR
STARTCHAR ch-85
ENCODING 85
SWIDTH 1000 0
DWIDTH 16 0
BBX 16 16 0 -2
BITMAP
0000
7dff
4410
44fe
7c82
4482
44fe
7c82
0082
28fe
2a82
ac82
68fe
2e44
38c6
e183
ENDCHAR
STARTCHAR ch-88
ENCODING 88
SWIDTH 1000 0
DWIDTH 16 0
BBX 16 16 0 -2
BITMAP
0000
7f7f
4408
5f3e
5122
5122
5f3e
5122
5122
5f3e
4422
5522
d53e
b594
a4b6
0c63
ENDCHAR
STARTCHAR ch-91
ENCODING 91
SWIDTH 1000 0
DWIDTH 16 0
BBX 16 16 0 -2
BITMAP
1000
10ff
fe10
107e
7c42
4442
7c7e
4442
7c42
447e
7c42
0042
fe7e
2424
6666
c2c3
ENDCHAR
STARTCHAR ch-94
ENCODING 94
SWIDTH 1000 0
DWIDTH 16 0
BBX 16 16 0 -2
BITMAP
1000
92ff
5410
fe7e
1042
3842
547e
9242
0042
107e
fe42
1042
387e
2c24
6666
c0c3
ENDCHAR
STARTCHAR ch-103
ENCODING 103
SWIDTH 1000 0
DWIDTH 16 0
BBX 16 16 0 -2
BITMAP
0000
ff7f
0010
7f7e
4142
7f42
407e
4a42
5f42
747e
5f42
5442
df7e
9424
1f66
00c3
ENDCHAR
STARTCHAR ch-107
ENCODING 107
SWIDTH 1000 0
DWIDTH 16 0
BBX 16 16 0 -2
BITMAP
0800
ffff
0008
7f3e
4122
5d22
553e
5d22
4122
7f3e
2222
3e22
223e
3e14
2236
ff63
ENDCHAR
STARTCHAR ch-111
ENCODING 111
SWIDTH 1000 0
DWIDTH 16 0
BBX 16 16 0 -2
BITMAP
0000
7f7f
4108
7f3e
4122
7f22
223e
cc22
5522
223e
54a2
f7a2
003e
5514
d5b6
94a3
ENDCHAR
STARTCHAR ch-112
ENCODING 112
SWIDTH 1000 0
DWIDTH 16 0
BBX 16 16 0 -2
BITMAP
087f
2f08
283e
ffa2
493e
88a2
3a3e
0422
1ffe
f10b
1ff8
1108
1ff8
0420
ffff
0020
ENDCHAR
STARTCHAR ch-113
ENCODING 113
SWIDTH 1000 0
DWIDTH 16 0
BBX 16 16 0 -2
BITMAP
0800
0f7f
0808
7fbe
48a2
7e22
48be
5fa2
5522
5f3e
5522
ffa2
aabe
2a94
7ff6
0023
ENDCHAR
STARTCHAR ch-115
ENCODING 115
SWIDTH 1000 0
DWIDTH 16 0
BBX 16 16 0 -2
BITMAP
7f00
227f
3e08
223e
3e22
2322
7e3e
0222
ffa2
553e
7722
5522
773e
5514
ff36
1163
ENDCHAR
STARTCHAR ch-116
ENCODING 116
SWIDTH 1000 0
DWIDTH 16 0
BBX 16 16 0 -2
BITMAP
2200
ff7f
2208
773e
5522
7722
003e
2422
7f22
c83e
7f22
4822
7f3e
4814
7fb6
0063
ENDCHAR
STARTCHAR ch-168
ENCODING 168
SWIDTH 1000 0
DWIDTH 16 0
BBX 16 16 0 -2
BITMAP
0000
3ff8
2008
20e8
2f88
2108
2fe8
2928
2928
2fe8
2108
2108
212c
63f5
5e17
c002
ENDCHAR
STARTCHAR ch-170
ENCODING 170
SWIDTH 1000 0
DWIDTH 16 0
BBX 16 16 0 -2
BITMAP
ffff
0100
01fe
0100
3ff8
2008
20e8
2f88
2108
2fe8
2928
2fe8
210c
6125
43f7
de12
ENDCHAR
STARTCHAR ch-175
ENCODING 175
SWIDTH 1000 0
DWIDTH 16 0
BBX 16 16 0 -2
BITMAP
1000
13fe
1202
fe1a
02f2
4a22
4afa
4aaa
5aaa
52fa
1222
1e22
722a
c23a
06ea
0403
ENDCHAR
STARTCHAR ch-177
ENCODING 177
SWIDTH 1000 0
DWIDTH 16 0
BBX 16 16 0 -2
BITMAP
0008
7fc8
4048
4358
5e52
4452
5f7f
5541
555e
5f52
4452
4452
455e
4741
dd63
803e
ENDCHAR
STARTCHAR ch-182
ENCODING 182
SWIDTH 1000 0
DWIDTH 16 0
BBX 16 16 0 -2
BITMAP
0000
7fde
4052
435e
5e52
445e
5f52
555e
5540
5f7f
4440
4452
4561
4740
dd61
803f
ENDCHAR
STARTCHAR ch-195
ENCODING 195
SWIDTH 1000 0
DWIDTH 16 0
BBX 16 16 0 -2
BITMAP
0000
7f7f
4114
4d7f
7955
517f
7d00
553e
5500
7d7f
5108
512a
5549
5d18
f581
80ff
ENDCHAR
STARTCHAR ch-196
ENCODING 196
SWIDTH 1000 0
DWIDTH 16 0
BBX 16 16 0 -2
BITMAP
0000
fefe
2882
fe9a
aaf2
aaa2
fefa
00aa
7caa
00fa
fea2
10a2
54aa
54ba
94ea
3103
ENDCHAR
STARTCHAR ch-198
ENCODING 198
SWIDTH 1000 0
DWIDTH 16 0
BBX 16 16 0 -2
BITMAP
1400
12fe
1082
fe9a
28f2
6ca2
c6fa
00aa
55aa
44fa
ffa2
44a2
44aa
aaba
aaea
9103
ENDCHAR
STARTCHAR ch-219
ENCODING 219
SWIDTH 1000 0
DWIDTH 16 0
BBX 16 16 0 -2
BITMAP
0000
7ff2
0014
051c
1d12
7108
1105
fff3
1110
1114
1118
1114
3112
2118
610d
c107
ENDCHAR
STARTCHAR ch-220
ENCODING 220
SWIDTH 1000 0
DWIDTH 16 0
BBX 16 16 0 -2
BITMAP
0400
1cfd
7026
9255
54d4
fe55
3853
5450
92fc
0055
7c56
5455
7c54
54d4
5495
7d93
ENDCHAR
STARTCHAR ch-223
ENCODING 223
SWIDTH 1000 0
DWIDTH 16 0
BBX 16 16 0 -2
BITMAP
0100
0380
06c0
0c70
391c
e107
1ff0
1010
1ff0
1010
1ff4
108c
10d8
1060
1f38
700e
ENDCHAR
STARTCHAR ch-226
ENCODING 226
SWIDTH 1000 0
DWIDTH 16 0
BBX 16 16 0 -2
BITMAP
0800
1c7c
1644
3344
2844
7e44
a244
3e44
2244
3e44
2044
2444
2444
26c5
3a85
6183
ENDCHAR
STARTCHAR ch-233
ENCODING 233
SWIDTH 1000 0
DWIDTH 16 0
BBX 16 16 0 -2
BITMAP
0810
1c16
161c
32f0
2810
7e10
a292
3e92
2292
3e92
20fe
2210
2210
2f11
3913
600e
ENDCHAR
STARTCHAR ch-235
ENCODING 235
SWIDTH 1000 0
DWIDTH 16 0
BBX 16 16 0 -2
BITMAP
1006
381c
2cf0
6610
5010
fc10
45ff
7c10
4410
7c38
4028
4428
446c
5e44
72c6
c183
ENDCHAR
STARTCHAR ch-237
ENCODING 237
SWIDTH 1000 0
DWIDTH 16 0
BBX 16 16 0 -2
BITMAP
1040
3840
2c40
66ff
5080
fda0
4420
7cfe
4422
7c22
4022
4022
4862
4c46
74c4
c19c
ENDCHAR
STARTCHAR ch-238
ENCODING 238
SWIDTH 1000 0
DWIDTH 16 0
BBX 16 16 0 -2
BITMAP
1040
3840
2c40
667f
5841
c0d3
7c92
4410
7c10
4438
7c28
4028
7c6c
4044
7cc6
4183
ENDCHAR
STARTCHAR ch-239
ENCODING 239
SWIDTH 1000 0
DWIDTH 16 0
BBX 16 16 0 -2
BITMAP
1000
38ff
2c80
6680
5080
fcfe
44a2
7ca2
44b6
7c94
409c
4888
489c
5d94
7536
c363
ENDCHAR
STARTCHAR ch-242
ENCODING 242
SWIDTH 1000 0
DWIDTH 16 0
BBX 16 16 0 -2
BITMAP
1040
3840
2c40
667f
5041
fcd3
4492
7c10
4410
7c38
4028
4428
446c
5e44
72c6
c183
ENDCHAR
STARTCHAR ch-244
ENCODING 244
SWIDTH 1000 0
DWIDTH 16 0
BBX 16 16 0 -2
BITMAP
1020
3820
2c64
6646
50c2
fc9f
45f1
7c00
4400
7cfe
4082
4482
4482
5e82
7282
c0fe
ENDCHAR
STARTCHAR ch-252
ENCODING 252
SWIDTH 1000 0
DWIDTH 16 0
BBX 16 16 0 -2
BITMAP
1000
39fe
2c02
6402
50f2
fc02
4402
7cf2
4492
7c92
4092
48f2
4802
5c02
7402
c00e
ENDCHAR
STARTCHAR ch-253
ENCODING 253
SWIDTH 1000 0
DWIDTH 16 0
BBX 16 16 0 -2
BITMAP
1080
3880
2cfe
6482
5082
fdf2
4712
7c12
4412
7cf2
408e
4880
4880
5c81
74c3
c07e
ENDCHAR
STARTCHAR ch-254
ENCODING 254
SWIDTH 1000 0
DWIDTH 16 0
BBX 16 16 0 -2
BITMAP
1040
3840
2c40
64ff
5090
fd10
44fe
7c92
4492
7c92
4092
4892
4892
4c96
7410
c010
ENDCHAR
STARTCHAR ch-259
ENCODING 259
SWIDTH 1000 0
DWIDTH 16 0
BBX 16 16 0 -2
BITMAP
1010
3810
2c10
65ff
5044
fcc6
4583
7c44
4444
7c6c
4038
4810
4838
5c6c
74c6
c183
ENDCHAR
STARTCHAR ch-261
ENCODING 261
SWIDTH 1000 0
DWIDTH 16 0
BBX 16 16 0 -2
BITMAP
1082
38c6
2c44
6400
51ff
fc44
4444
7c44
45ff
7c44
4044
4444
4444
5ec4
7284
c184
ENDCHAR
STARTCHAR ch-265
ENCODING 265
SWIDTH 1000 0
DWIDTH 16 0
BBX 16 16 0 -2
BITMAP
1020
3860
2c40
65fe
5102
fd02
457a
7d4a
454a
7d4a
417a
4902
4902
5d02
7502
c10e
ENDCHAR
STARTCHAR ch-266
ENCODING 266
SWIDTH 1000 0
DWIDTH 16 0
BBX 16 16 0 -2
BITMAP
0820
0440
7ffe
0100
3ffc
0100
ffff
0910
1ff8
2814
cff3
0810
0ff4
0848
1f70
701f
ENDCHAR
STARTCHAR ch-268
ENCODING 268
SWIDTH 1000 0
DWIDTH 16 0
BBX 16 16 0 -2
BITMAP
0800
1dff
1644
3344
6844
be7c
2244
3e44
2244
3e7c
2044
2244
2247
2ffc
3904
6004
ENDCHAR
STARTCHAR ch-272
ENCODING 272
SWIDTH 1000 0
DWIDTH 16 0
BBX 16 16 0 -2
BITMAP
0800
0f7e
0822
3f14
e208
2c34
f183
0660
1918
eff7
0810
0ff0
0810
0ff4
0848
7e3f
ENDCHAR
STARTCHAR ch-274
ENCODING 274
SWIDTH 1000 0
DWIDTH 16 0
BBX 16 16 0 -2
BITMAP
1006
381c
2df0
6421
5133
fd96
4484
7c20
45ff
7c24
4064
484c
48e8
5c3c
7466
c1c3
ENDCHAR
STARTCHAR ch-275
ENCODING 275
SWIDTH 1000 0
DWIDTH 16 0
BBX 16 16 0 -2
BITMAP
102a
3849
2dc9
6448
d048
7dff
4448
7c49
4449
7c6a
41ca
484c
4845
5c45
744b
c1d1
ENDCHAR
STARTCHAR ch-276
ENCODING 276
SWIDTH 1000 0
DWIDTH 16 0
BBX 16 16 0 -2
BITMAP
1014
3812
2dff
6410
5010
fcfe
4492
7c92
44fe
7c92
4092
48fe
4892
5c92
7492
c096
ENDCHAR
STARTCHAR ch-280
ENCODING 280
SWIDTH 1000 0
DWIDTH 16 0
BBX 16 16 0 -2
BITMAP
1010
3838
2c28
666c
50c6
fd83
447c
7c10
4410
7cfe
4010
4854
4854
5cd6
7593
c030
ENDCHAR
STARTCHAR ch-285
ENCODING 285
SWIDTH 1000 0
DWIDTH 16 0
BBX 16 16 0 -2
BITMAP
1044
3844
2dff
6444
5054
fc10
45ff
7c20
4420
7c3e
4022
4862
4842
5c46
74c4
c19c
ENDCHAR
STARTCHAR ch-286
ENCODING 286
SWIDTH 1000 0
DWIDTH 16 0
BBX 16 16 0 -2
BITMAP
1048
3844
2c7e
65e0
5036
fc18
446d
7d87
4408
7c44
407e
49e0
4836
5c18
746d
c187
ENDCHAR
STARTCHAR ch-288
ENCODING 288
SWIDTH 1000 0
DWIDTH 16 0
BBX 16 16 0 -2
BITMAP
1022
3866
2c44
65ef
5044
fc44
4444
7c54
4464
7cdf
4144
4844
4844
5cc4
7484
c184
ENDCHAR
STARTCHAR ch-289
ENCODING 289
SWIDTH 1000 0
DWIDTH 16 0
BBX 16 16 0 -2
BITMAP
1040
3840
2c7e
6442
50c6
fc84
459c
7c00
4420
7cee
4082
4882
48ee
5c82
7482
c0fe
ENDCHAR
STARTCHAR ch-292
ENCODING 292
SWIDTH 1000 0
DWIDTH 16 0
BBX 16 16 0 -2
BITMAP
1010
3891
2c93
65ba
5128
fc6c
44c6
7d93
4410
7c91
4093
49ba
4928
5c6c
74c6
c183
ENDCHAR
STARTCHAR ch-296
ENCODING 296
SWIDTH 1000 0
DWIDTH 16 0
BBX 16 16 0 -2
BITMAP
1010
3810
2dff
6501
5101
fc7c
4444
7c44
447c
7c40
4040
447e
4442
5e42
7242
c07e
ENDCHAR
STARTCHAR ch-300
ENCODING 300
SWIDTH 1000 0
DWIDTH 16 0
BBX 16 16 0 -2
BITMAP
1080
389e
2c92
6492
53f2
fc9e
4492
7c92
45d2
7d5e
4152
4952
4952
5dd2
7412
c026
ENDCHAR
STARTCHAR ch-302
ENCODING 302
SWIDTH 1000 0
DWIDTH 16 0
BBX 16 16 0 -2
BITMAP
0010
ff3c
10e7
3e10
d264
0c19
f186
0660
1918
eff7
0810
0ff0
0810
0ff4
0848
7e3f
ENDCHAR
STARTCHAR ch-317
ENCODING 317
SWIDTH 1000 0
DWIDTH 16 0
BBX 16 16 0 -2
BITMAP
1020
3840
2dfe
6522
5122
fdfe
4522
7d22
45fe
7c50
4054
4855
48df
5c90
7591
c30f
ENDCHAR
STARTCHAR ch-318
ENCODING 318
SWIDTH 1000 0
DWIDTH 16 0
BBX 16 16 0 -2
BITMAP
1060
39df
2d05
6505
514d
fd49
45fb
7f20
4400
7cfe
4092
4892
48fe
5c92
7492
c0fe
ENDCHAR
STARTCHAR ch-322
ENCODING 322
SWIDTH 1000 0
DWIDTH 16 0
BBX 16 16 0 -2
BITMAP
1000
387c
2c44
6444
507c
fc44
4444
7c7c
4400
7cfe
40aa
48aa
48aa
5caa
74aa
c1ff
ENDCHAR
STARTCHAR ch-325
ENCODING 325
SWIDTH 1000 0
DWIDTH 16 0
BBX 16 16 0 -2
BITMAP
10fe
3882
2cfe
6482
50fe
fc00
45ff
7d49
45ff
7c00
41ff
4886
484c
5c38
746c
c1c7
ENDCHAR
STARTCHAR ch-329
ENCODING 329
SWIDTH 1000 0
DWIDTH 16 0
BBX 16 16 0 -2
BITMAP
1044
3844
2dff
6444
5000
fcfe
4492
7c92
44fe
7c10
40fe
4810
48fe
5c10
7410
c1ff
ENDCHAR
STARTCHAR ch-331
ENCODING 331
SWIDTH 1000 0
DWIDTH 16 0
BBX 16 16 0 -2
BITMAP
1010
38fe
2c92
64fe
5010
fdff
4400
7cfe
4482
7cfe
4082
48fe
4882
5cfe
7444
c183
ENDCHAR
STARTCHAR ch-332
ENCODING 332
SWIDTH 1000 0
DWIDTH 16 0
BBX 16 16 0 -2
BITMAP
1000
39ce
2c42
65ce
5108
fd29
44e7
7c00
4448
7dfe
4048
4848
4bff
5c44
74c6
c183
ENDCHAR
STARTCHAR ch-336
ENCODING 336
SWIDTH 1000 0
DWIDTH 16 0
BBX 16 16 0 -2
BITMAP
1010
3810
2dff
6410
50fe
fc00
45ff
7d01
447c
7c00
40fe
4882
48fe
5c44
7428
c1ff
ENDCHAR
STARTCHAR ch-337
ENCODING 337
SWIDTH 1000 0
DWIDTH 16 0
BBX 16 16 0 -2
BITMAP
1092
3996
2d14
6555
5092
fd14
4555
7dd7
4412
7dff
4110
4912
4994
5d49
7515
c223
ENDCHAR
STARTCHAR ch-338
ENCODING 338
SWIDTH 1000 0
DWIDTH 16 0
BBX 16 16 0 -2
BITMAP
1010
387c
2c10
64fe
5000
fc84
45ef
7c84
44e4
7d8f
4000
49ff
4848
5c49
74c9
c187
ENDCHAR
STARTCHAR ch-341
ENCODING 341
SWIDTH 1000 0
DWIDTH 16 0
BBX 16 16 0 -2
BITMAP
7c10
441e
7c10
00ff
fe91
20fc
3891
089f
79a4
0667
1918
eff7
0810
0ff4
0848
7e3f
ENDCHAR
STARTCHAR ch-343
ENCODING 343
SWIDTH 1000 0
DWIDTH 16 0
BBX 16 16 0 -2
BITMAP
23ef
ca29
53ea
222a
fbe9
1249
23eb
c628
0180
0ff0
f81f
0ff0
0810
0ff4
08c8
7f3e
ENDCHAR
STARTCHAR ch-406
ENCODING 406
SWIDTH 1000 0
DWIDTH 16 0
BBX 16 16 0 -2
BITMAP
1008
1818
0810
ffff
0100
0200
3ffc
2004
2004
3ffc
2004
2004
3ffc
2004
2004
3ffc
ENDCHAR
STARTCHAR ch-407
ENCODING 407
SWIDTH 1000 0
DWIDTH 16 0
BBX 16 16 0 -2
BITMAP
2084
2048
23ff
2020
fcfc
2484
2484
24fc
2484
2484
24fc
2484
2484
64fd
4603
c3fe
ENDCHAR
STARTCHAR ch-408
ENCODING 408
SWIDTH 1000 0
DWIDTH 16 0
BBX 16 16 0 -2
BITMAP
420a
6609
2408
feff
1008
7e08
42e9
42a9
7ead
42a6
42e4
7e04
42e4
420d
7e37
00e2
ENDCHAR
STARTCHAR ch-409
ENCODING 409
SWIDTH 1000 0
DWIDTH 16 0
BBX 16 16 0 -2
BITMAP
0018
00f0
3f80
0100
ffff
0520
0d30
1918
310c
dffb
1008
1008
1ff8
1008
1008
1ff8
ENDCHAR
STARTCHAR ch-421
ENCODING 421
SWIDTH 1000 0
DWIDTH 16 0
BBX 16 16 0 -2
BITMAP
0440
1c40
70ff
1180
fe7c
1044
387c
5444
927c
7c20
447c
44c4
7dac
4438
446c
7dc7
ENDCHAR
STARTCHAR ch-424
ENCODING 424
SWIDTH 1000 0
DWIDTH 16 0
BBX 16 16 0 -2
BITMAP
083c
ffa4
0847
ffbc
4924
7f18
4064
9fc3
0100
ffff
0910
3ffc
d00b
1ff8
1008
1ff8
ENDCHAR
STARTCHAR ch-428
ENCODING 428
SWIDTH 1000 0
DWIDTH 16 0
BBX 16 16 0 -2
BITMAP
0000
1ffc
1080
1080
1ff8
1080
1080
1ff8
1080
1080
1ffe
0002
4922
cdb2
8496
000c
ENDCHAR
STARTCHAR ch-429
ENCODING 429
SWIDTH 1000 0
DWIDTH 16 0
BBX 16 16 0 -2
BITMAP
0000
7f7e
4822
4822
7f22
4822
4836
7f14
4814
481c
7f88
0088
aa9c
aa94
81b6
0363
ENDCHAR
STARTCHAR ch-430
ENCODING 430
SWIDTH 1000 0
DWIDTH 16 0
BBX 16 16 0 -2
BITMAP
0000
03fe
6220
3220
13fc
0220
0220
03fc
0220
1220
33ff
2001
6011
c559
0d4b
0806
ENDCHAR
STARTCHAR ch-435
ENCODING 435
SWIDTH 1000 0
DWIDTH 16 0
BBX 16 16 0 -2
BITMAP
0008
7fa8
4428
442e
7f2a
443a
442a
7f6a
442a
442a
7fae
00a8
aaa8
aaa1
81b3
031e
ENDCHAR
STARTCHAR ch-436
ENCODING 436
SWIDTH 1000 0
DWIDTH 16 0
BBX 16 16 0 -2
BITMAP
0001
7fa1
4429
4429
7f29
4429
4429
7f29
4429
4429
7fa9
00a9
aaa9
aaa1
81a1
0341
ENDCHAR
STARTCHAR ch-444
ENCODING 444
SWIDTH 1000 0
DWIDTH 16 0
BBX 16 16 0 -2
BITMAP
0008
7f88
4808
487f
7f22
4822
4836
7f14
4814
481c
7f88
0088
aa9c
aa94
81b6
0363
ENDCHAR
STARTCHAR ch-449
ENCODING 449
SWIDTH 1000 0
DWIDTH 16 0
BBX 16 16 0 -2
BITMAP
0002
7f66
483c
4818
7e3c
4866
48c2
7e00
4822
4836
7f94
009c
aa88
aa9c
81b6
0363
ENDCHAR
STARTCHAR ch-452
ENCODING 452
SWIDTH 1000 0
DWIDTH 16 0
BBX 16 16 0 -2
BITMAP
0008
7f88
4408
4408
7f7f
4408
4408
7f1c
4414
4414
7f94
00b6
aaa2
aaaa
81ab
0341
ENDCHAR
STARTCHAR ch-453
ENCODING 453
SWIDTH 1000 0
DWIDTH 16 0
BBX 16 16 0 -2
BITMAP
0000
7fbe
4822
4822
7f22
4822
4822
7f3e
4828
4828
7fac
00a4
aaa4
aaa6
81a2
0343
ENDCHAR
STARTCHAR ch-454
ENCODING 454
SWIDTH 1000 0
DWIDTH 16 0
BBX 16 16 0 -2
BITMAP
0000
7fbf
4420
4420
7f2a
442a
442a
7f24
4424
4424
7faa
00aa
aaaa
aaa0
81a0
073f
ENDCHAR
STARTCHAR ch-456
ENCODING 456
SWIDTH 1000 0
DWIDTH 16 0
BBX 16 16 0 -2
BITMAP
0006
7f8c
4438
4420
7f20
443f
4424
7f24
4424
4424
7fa4
00a4
aaa4
aaa4
81a4
077f
ENDCHAR
STARTCHAR ch-464
ENCODING 464
SWIDTH 1000 0
DWIDTH 16 0
BBX 16 16 0 -2
BITMAP
0010
7f98
4408
4400
7f7f
4408
4408
7f08
4408
447f
7f88
0088
aa88
aa88
8188
037f
ENDCHAR
STARTCHAR ch-465
ENCODING 465
SWIDTH 1000 0
DWIDTH 16 0
BBX 16 16 0 -2
BITMAP
0800
fffe
1144
2228
7c10
0a2c
3143
dffc
1080
1ff8
1080
1ff8
1080
5ffe
c922
8496
ENDCHAR
STARTCHAR ch-466
ENCODING 466
SWIDTH 1000 0
DWIDTH 16 0
BBX 16 16 0 -2
BITMAP
0020
7f20
443f
4461
7f41
44fd
4425
7f25
4425
4425
7fbd
0081
aa81
aa83
8182
070e
ENDCHAR
STARTCHAR ch-469
ENCODING 469
SWIDTH 1000 0
DWIDTH 16 0
BBX 16 16 0 -2
BITMAP
1000
ff7f
1141
3141
677f
c000
1ffc
1080
1ff8
1080
1ff8
1080
1ffe
4922
c492
8006
ENDCHAR
STARTCHAR ch-472
ENCODING 472
SWIDTH 1000 0
DWIDTH 16 0
BBX 16 16 0 -2
BITMAP
0010
7f90
4830
4822
7f22
482f
4879
7f00
4800
483e
7fa2
00a2
aaa2
aaa2
81a2
033e
ENDCHAR
STARTCHAR ch-475
ENCODING 475
SWIDTH 1000 0
DWIDTH 16 0
BBX 16 16 0 -2
BITMAP
0008
7f88
4808
487f
7f49
4849
4849
7f7f
4808
4808
7fa8
0098
aa88
aa9c
81b6
0363
ENDCHAR
STARTCHAR ch-477
ENCODING 477
SWIDTH 1000 0
DWIDTH 16 0
BBX 16 16 0 -2
BITMAP
0008
7f88
4808
487f
7f41
4841
4810
7f10
4813
481e
7f90
0090
aa90
aa91
8193
030e
ENDCHAR
STARTCHAR ch-479
ENCODING 479
SWIDTH 1000 0
DWIDTH 16 0
BBX 16 16 0 -2
BITMAP
0000
7f7f
4855
4855
7e55
4855
4855
7e55
4855
4855
7f57
0161
5541
d541
837f
0600
ENDCHAR
STARTCHAR ch-482
ENCODING 482
SWIDTH 1000 0
DWIDTH 16 0
BBX 16 16 0 -2
BITMAP
0042
7f66
4824
48ff
7e24
4824
4824
7eff
4824
4824
7fa4
00a4
aaa4
aaa4
81a4
0344
ENDCHAR
STARTCHAR ch-493
ENCODING 493
SWIDTH 1000 0
DWIDTH 16 0
BBX 16 16 0 -2
BITMAP
0008
7f88
4808
487f
7f10
4832
4866
7f34
480c
4819
7fb3
0086
aa8c
aa9a
81b3
0361
ENDCHAR
STARTCHAR ch-494
ENCODING 494
SWIDTH 1000 0
DWIDTH 16 0
BBX 16 16 0 -2
BITMAP
0008
7f88
487f
4814
7f36
4863
4800
7f22
4836
4814
7f9c
0088
aa9c
aa94
81b6
0363
ENDCHAR
STARTCHAR ch-497
ENCODING 497
SWIDTH 1000 0
DWIDTH 16 0
BBX 16 16 0 -2
BITMAP
0010
7f90
483e
4822
7f76
481c
4808
7f1c
4836
4863
7f80
00be
aaa2
aaa2
81a2
033e
ENDCHAR
STARTCHAR ch-498
ENCODING 498
SWIDTH 1000 0
DWIDTH 16 0
BBX 16 16 0 -2
BITMAP
0001
7e49
4849
4849
7e49
4849
48db
7edb
4849
4849
7e49
0249
aa49
aac9
8681
0d01
ENDCHAR
STARTCHAR ch-504
ENCODING 504
SWIDTH 1000 0
DWIDTH 16 0
BBX 16 16 0 -2
BITMAP
0000
7fbe
4802
483e
7f02
483e
4800
7f7f
4841
483e
7f92
0096
aa8c
aa98
81b6
0363
ENDCHAR
STARTCHAR ch-507
ENCODING 507
SWIDTH 1000 0
DWIDTH 16 0
BBX 16 16 0 -2
BITMAP
0000
7fbe
4822
4822
7f3e
4822
4822
7f3e
4800
483e
7f88
0088
aaff
aa88
8188
0308
ENDCHAR
STARTCHAR ch-511
ENCODING 511
SWIDTH 1000 0
DWIDTH 16 0
BBX 16 16 0 -2
BITMAP
0020
7f62
4842
48ff
7e25
4824
4847
7ea0
483e
4862
7fd6
009c
aa88
aa9c
81b6
0363
ENDCHAR
ENDFONT
